<svg id="Warstwa_1_kopia" data-name="Warstwa 1 kopia" xmlns="http://www.w3.org/2000/svg" xmlns:xlink="http://www.w3.org/1999/xlink" viewBox="0 0 580.88 665.24"><defs><style>.cls-1{fill:url(#Gradient_bez_nazwy_8);}.cls-2{fill:url(#Gradient_bez_nazwy_7);}.cls-3,.cls-5{fill:none;}.cls-3,.cls-4,.cls-5{stroke:#e0ffff;stroke-miterlimit:10;}.cls-3,.cls-4{stroke-width:14px;}.cls-4,.cls-6{fill:#e0ffff;}.cls-5{stroke-width:18px;}</style><linearGradient id="Gradient_bez_nazwy_8" x1="140.53" y1="239.59" x2="331.95" y2="410.89" gradientUnits="userSpaceOnUse"><stop offset="0" stop-color="#00b6ec"/><stop offset="0.13" stop-color="#00c1ef"/><stop offset="0.71" stop-color="#01eefa"/><stop offset="1" stop-color="#01ffff"/></linearGradient><linearGradient id="Gradient_bez_nazwy_7" x1="230.29" y1="334.12" x2="447.81" y2="575.58" gradientUnits="userSpaceOnUse"><stop offset="0" stop-color="#ffb853"/><stop offset="0.13" stop-color="#fba944"/><stop offset="0.51" stop-color="#f2841f"/><stop offset="0.81" stop-color="#ec6c08"/><stop offset="1" stop-color="#ea6400"/></linearGradient></defs><title>LOGO</title><path class="cls-1" d="M111.34,581c0-171.37,138.92-310.28,310.28-310.28A308.76,308.76,0,0,1,584,316.54V297.49a134.8,134.8,0,0,0-87.85-126.36L324.91,107.51a68.05,68.05,0,0,0-47.58,0l-171.19,64a137,137,0,0,0-89,128.35V457.45a153.39,153.39,0,0,0,48,111.5l48,45.32A313.06,313.06,0,0,1,111.34,581Z" transform="translate(-10.11 -96.24)"/><path class="cls-2" d="M111.34,581a313.06,313.06,0,0,0,1.78,33.3L232.83,727.39a99.23,99.23,0,0,0,136.43-.14L545,560.59a125.23,125.23,0,0,0,39-90.86V316.54a308.76,308.76,0,0,0-162.37-45.85C250.26,270.69,111.34,409.6,111.34,581Z" transform="translate(-10.11 -96.24)"/><path class="cls-3" d="M584,297.49V469.73a125.23,125.23,0,0,1-39,90.86L369.26,727.25a99.23,99.23,0,0,1-136.43.14L65.15,569a153.39,153.39,0,0,1-48-111.5V299.94a137,137,0,0,1,89-128.35l171.19-64a68.11,68.11,0,0,1,47.58,0l171.23,63.62A134.8,134.8,0,0,1,584,297.49Z" transform="translate(-10.11 -96.24)"/><path class="cls-3" d="M530.9,317.13v142A104,104,0,0,1,499.21,534L356.63,671.39a79.62,79.62,0,0,1-110.72.12L109.82,540.9a127.4,127.4,0,0,1-39-91.91V319.15c0-47.12,28.8-89.29,72.26-105.8L282,160.57a54.46,54.46,0,0,1,38.61,0L459.6,213C502.46,229.14,530.9,270.69,530.9,317.13Z" transform="translate(-10.11 -96.24)"/><line class="cls-3" x1="251.71" y1="174.45" x2="331.61" y2="174.45"/><path class="cls-3" d="M181.92,270.69H165.83c-26.41,0-47.83,21.07-47.83,47.06V467.23c0,30.39,25,55,55.93,55h0c30.89,0,55.93-24.64,55.93-55v-7.59" transform="translate(-10.11 -96.24)"/><path class="cls-3" d="M373.68,459.64v7.59c0,30.39,25,55,55.93,55h0c30.89,0,55.93-24.64,55.93-55V317.75c0-26-21.42-47.06-47.83-47.06H421.62" transform="translate(-10.11 -96.24)"/><path class="cls-4" d="M373.68,459.64c0-17.52-13-31.72-29-31.72h-85.8c-16,0-29,14.2-29,31.72" transform="translate(-10.11 -96.24)"/><line class="cls-3" x1="219.75" y1="363.89" x2="363.57" y2="364.01"/><path class="cls-3" d="M261.82,270.69v-5.57c0-5.61-9.24-10.15-20.63-10.15H202.56c-11.4,0-20.64,4.54-20.64,10.15v5.57" transform="translate(-10.11 -96.24)"/><line class="cls-3" x1="171.82" y1="174.44" x2="251.71" y2="174.44"/><path class="cls-3" d="M341.72,270.69v-5.57c0-5.61,9.24-10.15,20.63-10.15H401c11.4,0,20.64,4.54,20.64,10.15v5.57" transform="translate(-10.11 -96.24)"/><line class="cls-3" x1="331.61" y1="174.44" x2="411.51" y2="174.44"/><line class="cls-5" x1="219.75" y1="253.06" x2="219.75" y2="300.23"/><line class="cls-5" x1="219.75" y1="205.89" x2="219.75" y2="253.06"/><line class="cls-5" x1="219.75" y1="253.06" x2="171.82" y2="253.06"/><line class="cls-5" x1="267.69" y1="253.06" x2="219.75" y2="253.06"/><ellipse class="cls-6" cx="363.57" cy="253.06" rx="47.94" ry="47.17"/></svg>