<?xml version="1.0" encoding="utf-8"?>
<!-- Generator: Adobe Illustrator 23.0.1, SVG Export Plug-In . SVG Version: 6.00 Build 0)  -->
<svg version="1.1" id="Warstwa_1_kopia" xmlns="http://www.w3.org/2000/svg" xmlns:xlink="http://www.w3.org/1999/xlink" x="0px"
	 y="0px" viewBox="0 0 580.9 665.2" style="enable-background:new 0 0 580.9 665.2;" xml:space="preserve">
<style type="text/css">
	.st0{fill:url(#SVGID_1_);}
	.st1{fill:url(#SVGID_2_);}
	.st2{fill:none;stroke:#E0FFFF;stroke-width:14;stroke-miterlimit:10;}
	.st3{fill:#E0FFFF;stroke:#E0FFFF;stroke-width:14;stroke-miterlimit:10;}
	.st4{fill:none;stroke:#E0FFFF;stroke-width:14;stroke-linecap:round;stroke-miterlimit:10;}
	.st5{fill:#E0FFFF;}
</style>
<linearGradient id="SVGID_1_" gradientUnits="userSpaceOnUse" x1="140.5394" y1="426.4205" x2="331.9594" y2="255.1205" gradientTransform="matrix(1 0 0 -1 -10.11 569.76)">
	<stop  offset="0" style="stop-color:#00B6EC"/>
	<stop  offset="0.13" style="stop-color:#00C1EF"/>
	<stop  offset="0.71" style="stop-color:#01EEFA"/>
	<stop  offset="1" style="stop-color:#01FFFF"/>
</linearGradient>
<path class="st0" d="M101.2,484.8c0-171.4,138.9-310.3,310.3-310.3c57.3-0.1,113.6,15.8,162.4,45.8v-19.1
	c0-56.3-35-106.7-87.9-126.4L314.8,11.3c-15.3-5.7-32.2-5.7-47.6,0L96,75.3c-53.5,20-89,71.2-89,128.4v157.6
	c0,42.2,17.3,82.5,48,111.5l48,45.3C101.8,507,101.2,495.9,101.2,484.8z"/>
<linearGradient id="SVGID_2_" gradientUnits="userSpaceOnUse" x1="230.2834" y1="331.874" x2="447.8034" y2="90.414" gradientTransform="matrix(1 0 0 -1 -10.11 569.76)">
	<stop  offset="0" style="stop-color:#FFB853"/>
	<stop  offset="0.13" style="stop-color:#FBA944"/>
	<stop  offset="0.51" style="stop-color:#F2841F"/>
	<stop  offset="0.81" style="stop-color:#EC6C08"/>
	<stop  offset="1" style="stop-color:#EA6400"/>
</linearGradient>
<path class="st1" d="M101.2,484.8c0,11.1,0.6,22.2,1.8,33.3l119.7,113.1c38.3,36.2,98.2,36.1,136.4-0.1l175.7-166.7
	c24.9-23.7,39-56.5,39-90.9V220.3c-48.8-30.1-105-45.9-162.4-45.9C240.1,174.5,101.2,313.4,101.2,484.8z"/>
<path class="st2" d="M573.9,201.3v172.2c0,34.4-14.1,67.2-39,90.9L359.2,631c-38.2,36.3-98.1,36.3-136.4,0.1L55,472.8
	c-30.7-29-48-69.3-48-111.5V203.7C7,146.5,42.5,95.4,96,75.3l171.2-64c15.3-5.7,32.2-5.7,47.6,0L486,75
	C538.8,94.6,573.9,144.9,573.9,201.3z"/>
<path class="st2" d="M520.8,220.9v142c0,28.2-11.4,55.2-31.7,74.9L346.5,575.2c-30.8,29.9-79.8,29.9-110.7,0.1L99.7,444.7
	c-25-24.1-39-57.2-39-91.9V222.9c0-47.1,28.8-89.3,72.3-105.8l138.9-52.8c12.4-4.7,26.2-4.7,38.6,0l139,52.4
	C492.4,132.9,520.8,174.5,520.8,220.9z"/>
<g id="Joystick">
	<line class="st2" x1="251.7" y1="174.4" x2="331.6" y2="174.4"/>
	<path class="st2" d="M171.8,174.5h-16.1c-26.4,0-47.8,21.1-47.8,47.1V371c0,30.4,25,55,55.9,55l0,0c30.9,0,55.9-24.6,55.9-55v-7.6"
		/>
	<path class="st2" d="M363.6,363.4v7.6c0,30.4,25,55,55.9,55l0,0c30.9,0,55.9-24.6,55.9-55V221.5c0-26-21.4-47.1-47.8-47.1h-16.1"/>
	<path class="st3" d="M363.6,363.4c0-17.5-13-31.7-29-31.7h-85.8c-16,0-29,14.2-29,31.7"/>
	<line class="st2" x1="219.8" y1="363.9" x2="363.6" y2="364"/>
	<path class="st2" d="M251.7,174.5v-5.6c0-5.6-9.2-10.1-20.6-10.1h-38.6c-11.4,0-20.6,4.5-20.6,10.1v5.6"/>
	<line class="st2" x1="171.8" y1="174.4" x2="251.7" y2="174.4"/>
	<path class="st2" d="M331.6,174.5v-5.6c0-5.6,9.2-10.1,20.6-10.1h38.6c11.4,0,20.6,4.5,20.6,10.1v5.6"/>
	<line class="st2" x1="331.6" y1="174.4" x2="411.5" y2="174.4"/>
	<g id="X">
		<line class="st4" x1="215.8" y1="254.9" x2="215.8" y2="294.2"/>
		<line class="st4" x1="215.8" y1="215.6" x2="215.8" y2="254.9"/>
		<line class="st4" x1="215.8" y1="254.9" x2="175.8" y2="254.9"/>
		<line class="st4" x1="255.7" y1="254.9" x2="215.8" y2="254.9"/>
	</g>
	<ellipse class="st5" cx="363.6" cy="253.1" rx="47.9" ry="47.2"/>
	<rect x="180.5" y="158.7" class="st5" width="63.9" height="15.7"/>
	<rect x="339.6" y="158.7" class="st5" width="63.9" height="15.7"/>
</g>
</svg>
