<svg id="Warstwa_1_kopia" data-name="Warstwa 1 kopia" xmlns="http://www.w3.org/2000/svg" xmlns:xlink="http://www.w3.org/1999/xlink" viewBox="0 0 578.72 663.08"><defs><style>.cls-1{fill:url(#Gradient_bez_nazwy_13);}.cls-2{fill:url(#Gradient_bez_nazwy_12);}.cls-3,.cls-4,.cls-5,.cls-8{fill:none;}.cls-3,.cls-4,.cls-5,.cls-6,.cls-7,.cls-8{stroke:#e0ffff;stroke-miterlimit:10;}.cls-3{stroke-width:11.83px;}.cls-4{stroke-width:9.68px;}.cls-5,.cls-6,.cls-7{stroke-width:8.81px;}.cls-6{fill:#e0ffff;}.cls-7{fill:#00b6ec;}.cls-8{stroke-width:17.75px;}</style><linearGradient id="Gradient_bez_nazwy_13" x1="133.76" y1="230.59" x2="553" y2="612.16" gradientUnits="userSpaceOnUse"><stop offset="0" stop-color="#00b6ec"/><stop offset="0.15" stop-color="#00c5f0"/><stop offset="0.5" stop-color="#01e5f8"/><stop offset="0.8" stop-color="#01f8fd"/><stop offset="1" stop-color="#01ffff"/></linearGradient><linearGradient id="Gradient_bez_nazwy_12" x1="203.43" y1="358.32" x2="457.28" y2="561.24" gradientUnits="userSpaceOnUse"><stop offset="0" stop-color="#ffb853"/><stop offset="0.35" stop-color="#feb44f"/><stop offset="0.72" stop-color="#fba745"/><stop offset="1" stop-color="#f89838"/></linearGradient></defs><title>LOGO</title><path class="cls-1" d="M111.34,581c0-171.37,138.92-310.28,310.28-310.28A308.76,308.76,0,0,1,584,316.54V297.49a134.8,134.8,0,0,0-87.85-126.36L324.91,107.51a68.05,68.05,0,0,0-47.58,0l-171.19,64a137,137,0,0,0-89,128.35V457.45a153.39,153.39,0,0,0,48,111.5l48,45.32A313.06,313.06,0,0,1,111.34,581Z" transform="translate(-11.19 -97.33)"/><path class="cls-2" d="M111.34,581a313.06,313.06,0,0,0,1.78,33.3L232.83,727.39a99.23,99.23,0,0,0,136.43-.14L545,560.59a125.23,125.23,0,0,0,39-90.86V316.54a308.76,308.76,0,0,0-162.37-45.85C250.26,270.69,111.34,409.6,111.34,581Z" transform="translate(-11.19 -97.33)"/><path class="cls-3" d="M584,297.49V469.73a125.23,125.23,0,0,1-39,90.86L369.26,727.25a99.23,99.23,0,0,1-136.43.14L65.15,569a153.39,153.39,0,0,1-48-111.5V299.94a137,137,0,0,1,89-128.35l171.19-64a68.11,68.11,0,0,1,47.58,0l171.23,63.62A134.8,134.8,0,0,1,584,297.49Z" transform="translate(-11.19 -97.33)"/><path class="cls-4" d="M530.9,317.13v142A104,104,0,0,1,499.21,534L356.63,671.39a79.62,79.62,0,0,1-110.72.12L109.82,540.9a127.4,127.4,0,0,1-39-91.91V319.15c0-47.12,28.8-89.29,72.26-105.8L282,160.57a54.46,54.46,0,0,1,38.61,0L459.6,213C502.46,229.14,530.9,270.69,530.9,317.13Z" transform="translate(-11.19 -97.33)"/><line class="cls-5" x1="250.63" y1="173.36" x2="330.53" y2="173.36"/><path class="cls-5" d="M181.92,270.69H165.83c-26.41,0-47.83,21.07-47.83,47.06V467.23c0,30.39,25,55,55.93,55h0c30.89,0,55.93-24.64,55.93-55v-7.59" transform="translate(-11.19 -97.33)"/><path class="cls-5" d="M373.68,459.64v7.59c0,30.39,25,55,55.93,55h0c30.89,0,55.93-24.64,55.93-55V317.75c0-26-21.42-47.06-47.83-47.06H421.62" transform="translate(-11.19 -97.33)"/><path class="cls-6" d="M373.68,459.64c0-17.52-13-31.72-29-31.72h-85.8c-16,0-29,14.2-29,31.72" transform="translate(-11.19 -97.33)"/><line class="cls-5" x1="218.67" y1="362.81" x2="362.49" y2="362.93"/><path class="cls-7" d="M261.82,270.69v-5.57c0-5.61-9.24-10.15-20.63-10.15H202.56c-11.4,0-20.64,4.54-20.64,10.15v5.57" transform="translate(-11.19 -97.33)"/><line class="cls-5" x1="170.73" y1="173.36" x2="250.63" y2="173.36"/><path class="cls-7" d="M341.72,270.69v-5.57c0-5.61,9.24-10.15,20.63-10.15H401c11.4,0,20.64,4.54,20.64,10.15v5.57" transform="translate(-11.19 -97.33)"/><line class="cls-5" x1="330.53" y1="173.36" x2="410.43" y2="173.36"/><line class="cls-8" x1="218.67" y1="251.98" x2="218.67" y2="299.15"/><line class="cls-8" x1="218.67" y1="204.81" x2="218.67" y2="251.98"/><line class="cls-8" x1="218.67" y1="251.98" x2="170.73" y2="251.98"/><line class="cls-8" x1="266.61" y1="251.98" x2="218.67" y2="251.98"/><ellipse class="cls-6" cx="362.49" cy="251.98" rx="47.94" ry="47.17"/></svg>